<?plantuml 1.2026.2beta3?>
<svg xmlns="http://www.w3.org/2000/svg" xmlns:xlink="http://www.w3.org/1999/xlink" contentStyleType="text/css" data-diagram-type="SEQUENCE" height="1401px" preserveAspectRatio="none" style="width:1414px;height:1401px;background:#FFFFFF;" version="1.1" viewBox="0 0 1414 1401" width="1414px" zoomAndPan="magnify"><defs/><g><g><title>CustomerPanel</title><rect fill="#FFFFFF" height="401.5938" style="stroke:#000000;stroke-width:1;" width="10" x="318.5879" y="156.5625"/></g><g><title>CustomerPanel</title><rect fill="#FFFFFF" height="486.5313" style="stroke:#000000;stroke-width:1;" width="10" x="318.5879" y="630.4219"/></g><g><title>CustomerPanel</title><rect fill="#FFFFFF" height="121.5313" style="stroke:#000000;stroke-width:1;" width="10" x="323.5879" y="775.9531"/></g><g><title>CustomerPanel</title><rect fill="#FFFFFF" height="229.9297" style="stroke:#000000;stroke-width:1;" width="10" x="318.5879" y="1146.0859"/></g><g><title>CreateVehicleType</title><rect fill="#FFFFFF" height="58.2656" style="stroke:#000000;stroke-width:1;" width="10" x="602.6348" y="227.8281"/></g><g><title>ParkingSpot</title><rect fill="#FFFFFF" height="29.1328" style="stroke:#000000;stroke-width:1;" width="10" x="850.1274" y="315.2266"/></g><g><title>ParkingSpot</title><rect fill="#FFFFFF" height="77.2656" style="stroke:#000000;stroke-width:1;" width="10" x="850.1274" y="373.4922"/></g><g><title>ParkingSpot</title><rect fill="#FFFFFF" height="77.2656" style="stroke:#000000;stroke-width:1;" width="10" x="850.1274" y="1262.6172"/></g><g><title>FineStrategy</title><rect fill="#FFFFFF" height="29.1328" style="stroke:#000000;stroke-width:1;" width="10" x="1229.5757" y="868.3516"/></g><g><title>Payment</title><rect fill="#FFFFFF" height="58.2656" style="stroke:#000000;stroke-width:1;" width="10" x="1349.2427" y="1175.2188"/></g><rect fill="#FFFFFF" height="232.7344" style="stroke:#000000;stroke-width:1;" width="1062.8955" x="243.3872" y="729.6875"/><rect fill="#FFFFFF" height="56.9375" style="stroke:none;stroke-width:1;" width="1062.8955" x="243.3872" y="905.4844"/><g class="participant-lifeline" data-entity-uid="part1" data-qualified-name="Customer" id="part1-lifeline"><g><title>Customer</title><rect fill="#000000" fill-opacity="0.00000" height="1311.7188" width="8" x="43.002" y="82.2969"/><line style="stroke:#000000;stroke-width:1;stroke-dasharray:5,5;" x1="47" x2="47" y1="82.2969" y2="1394.0156"/></g></g><g class="participant-lifeline" data-entity-uid="part2" data-qualified-name="CP" id="part2-lifeline"><g><title>CustomerPanel</title><rect fill="#000000" fill-opacity="0.00000" height="1311.7188" width="8" x="319.5879" y="82.2969"/><line style="stroke:#000000;stroke-width:1;stroke-dasharray:5,5;" x1="323.3872" x2="323.3872" y1="82.2969" y2="1394.0156"/></g></g><g class="participant-lifeline" data-entity-uid="part3" data-qualified-name="CVT" id="part3-lifeline"><g><title>CreateVehicleType</title><rect fill="#000000" fill-opacity="0.00000" height="1311.7188" width="8" x="603.6348" y="82.2969"/><line style="stroke:#000000;stroke-width:1;stroke-dasharray:5,5;" x1="607.4766" x2="607.4766" y1="82.2969" y2="1394.0156"/></g></g><g class="participant-lifeline" data-entity-uid="part4" data-qualified-name="V" id="part4-lifeline"><g><title>Vehicle</title><rect fill="#000000" fill-opacity="0.00000" height="1311.7188" width="8" x="739.3696" y="82.2969"/><line style="stroke:#000000;stroke-width:1;stroke-dasharray:5,5;" x1="742.793" x2="742.793" y1="82.2969" y2="1394.0156"/></g></g><g class="participant-lifeline" data-entity-uid="part5" data-qualified-name="SP" id="part5-lifeline"><g><title>ParkingSpot</title><rect fill="#000000" fill-opacity="0.00000" height="1311.7188" width="8" x="851.1274" y="82.2969"/><line style="stroke:#000000;stroke-width:1;stroke-dasharray:5,5;" x1="854.9463" x2="854.9463" y1="82.2969" y2="1394.0156"/></g></g><g class="participant-lifeline" data-entity-uid="part6" data-qualified-name="T" id="part6-lifeline"><g><title>Ticket</title><rect fill="#000000" fill-opacity="0.00000" height="1311.7188" width="8" x="1024.1602" y="82.2969"/><line style="stroke:#000000;stroke-width:1;stroke-dasharray:5,5;" x1="1027.9858" x2="1027.9858" y1="82.2969" y2="1394.0156"/></g></g><g class="participant-lifeline" data-entity-uid="part7" data-qualified-name="P" id="part7-lifeline"><g><title>Parking</title><rect fill="#000000" fill-opacity="0.00000" height="1311.7188" width="8" x="1115.6016" y="82.2969"/><line style="stroke:#000000;stroke-width:1;stroke-dasharray:5,5;" x1="1119.3345" x2="1119.3345" y1="82.2969" y2="1394.0156"/></g></g><g class="participant-lifeline" data-entity-uid="part8" data-qualified-name="FS" id="part8-lifeline"><g><title>FineStrategy</title><rect fill="#000000" fill-opacity="0.00000" height="1311.7188" width="8" x="1230.5757" y="82.2969"/><line style="stroke:#000000;stroke-width:1;stroke-dasharray:5,5;" x1="1233.8687" x2="1233.8687" y1="82.2969" y2="1394.0156"/></g></g><g class="participant-lifeline" data-entity-uid="part9" data-qualified-name="PAY" id="part9-lifeline"><g><title>Payment</title><rect fill="#000000" fill-opacity="0.00000" height="1311.7188" width="8" x="1350.2427" y="82.2969"/><line style="stroke:#000000;stroke-width:1;stroke-dasharray:5,5;" x1="1353.2827" x2="1353.2827" y1="82.2969" y2="1394.0156"/></g></g><g class="participant participant-head" data-entity-uid="part1" data-qualified-name="Customer" id="part1-head"><text fill="#000000" font-family="Verdana" font-size="14" lengthAdjust="spacing" textLength="68.0039" x="10" y="78.9951">Customer</text><ellipse cx="47.002" cy="14" fill="#FFFFFF" rx="8" ry="8" style="stroke:#000000;stroke-width:1;"/><path d="M47.002,22 L47.002,49 M34.002,30 L60.002,30 M47.002,49 L34.002,64 M47.002,49 L60.002,64" fill="none" style="stroke:#000000;stroke-width:1;"/></g><g class="participant participant-head" data-entity-uid="part2" data-qualified-name="CP" id="part2-head"><rect fill="#FFFFFF" height="30.2969" rx="2.5" ry="2.5" style="stroke:#000000;stroke-width:1;" width="120.4014" x="263.3872" y="51"/><text fill="#000000" font-family="Verdana" font-size="14" lengthAdjust="spacing" textLength="106.4014" x="270.3872" y="70.9951">CustomerPanel</text></g><g class="participant participant-head" data-entity-uid="part3" data-qualified-name="CVT" id="part3-head"><rect fill="#FFFFFF" height="30.2969" rx="2.5" ry="2.5" style="stroke:#000000;stroke-width:1;" width="146.3164" x="534.4766" y="51"/><text fill="#000000" font-family="Verdana" font-size="14" lengthAdjust="spacing" textLength="132.3164" x="541.4766" y="70.9951">CreateVehicleType</text></g><g class="participant participant-head" data-entity-uid="part4" data-qualified-name="V" id="part4-head"><rect fill="#FFFFFF" height="30.2969" rx="2.5" ry="2.5" style="stroke:#000000;stroke-width:1;" width="65.1533" x="710.793" y="51"/><text fill="#000000" font-family="Verdana" font-size="14" lengthAdjust="spacing" textLength="51.1533" x="717.793" y="70.9951">Vehicle</text></g><g class="participant participant-head" data-entity-uid="part5" data-qualified-name="SP" id="part5-head"><rect fill="#FFFFFF" height="30.2969" rx="2.5" ry="2.5" style="stroke:#000000;stroke-width:1;" width="98.3623" x="805.9463" y="51"/><text fill="#000000" font-family="Verdana" font-size="14" lengthAdjust="spacing" textLength="84.3623" x="812.9463" y="70.9951">ParkingSpot</text></g><g class="participant participant-head" data-entity-uid="part6" data-qualified-name="T" id="part6-head"><rect fill="#FFFFFF" height="30.2969" rx="2.5" ry="2.5" style="stroke:#000000;stroke-width:1;" width="56.3486" x="999.9858" y="51"/><text fill="#000000" font-family="Verdana" font-size="14" lengthAdjust="spacing" textLength="42.3486" x="1006.9858" y="70.9951">Ticket</text></g><g class="participant participant-head" data-entity-uid="part7" data-qualified-name="P" id="part7-head"><rect fill="#FFFFFF" height="30.2969" rx="2.5" ry="2.5" style="stroke:#000000;stroke-width:1;" width="66.5342" x="1086.3345" y="51"/><text fill="#000000" font-family="Verdana" font-size="14" lengthAdjust="spacing" textLength="52.5342" x="1093.3345" y="70.9951">Parking</text></g><g class="participant participant-head" data-entity-uid="part8" data-qualified-name="FS" id="part8-head"><rect fill="#FFFFFF" height="30.2969" rx="2.5" ry="2.5" style="stroke:#000000;stroke-width:1;" width="103.4141" x="1182.8687" y="51"/><text fill="#000000" font-family="Verdana" font-size="14" lengthAdjust="spacing" textLength="89.4141" x="1189.8687" y="70.9951">FineStrategy</text></g><g class="participant participant-head" data-entity-uid="part9" data-qualified-name="PAY" id="part9-head"><rect fill="#FFFFFF" height="30.2969" rx="2.5" ry="2.5" style="stroke:#000000;stroke-width:1;" width="75.9199" x="1316.2827" y="51"/><text fill="#000000" font-family="Verdana" font-size="14" lengthAdjust="spacing" textLength="61.9199" x="1323.2827" y="70.9951">Payment</text></g><g><title>CustomerPanel</title><rect fill="#FFFFFF" height="401.5938" style="stroke:#000000;stroke-width:1;" width="10" x="318.5879" y="156.5625"/></g><g><title>CustomerPanel</title><rect fill="#FFFFFF" height="486.5313" style="stroke:#000000;stroke-width:1;" width="10" x="318.5879" y="630.4219"/></g><g><title>CustomerPanel</title><rect fill="#FFFFFF" height="121.5313" style="stroke:#000000;stroke-width:1;" width="10" x="323.5879" y="775.9531"/></g><g><title>CustomerPanel</title><rect fill="#FFFFFF" height="229.9297" style="stroke:#000000;stroke-width:1;" width="10" x="318.5879" y="1146.0859"/></g><g><title>CreateVehicleType</title><rect fill="#FFFFFF" height="58.2656" style="stroke:#000000;stroke-width:1;" width="10" x="602.6348" y="227.8281"/></g><g><title>ParkingSpot</title><rect fill="#FFFFFF" height="29.1328" style="stroke:#000000;stroke-width:1;" width="10" x="850.1274" y="315.2266"/></g><g><title>ParkingSpot</title><rect fill="#FFFFFF" height="77.2656" style="stroke:#000000;stroke-width:1;" width="10" x="850.1274" y="373.4922"/></g><g><title>ParkingSpot</title><rect fill="#FFFFFF" height="77.2656" style="stroke:#000000;stroke-width:1;" width="10" x="850.1274" y="1262.6172"/></g><g><title>FineStrategy</title><rect fill="#FFFFFF" height="29.1328" style="stroke:#000000;stroke-width:1;" width="10" x="1229.5757" y="868.3516"/></g><g><title>Payment</title><rect fill="#FFFFFF" height="58.2656" style="stroke:#000000;stroke-width:1;" width="10" x="1349.2427" y="1175.2188"/></g><rect fill="#FFFFFF" height="3" style="stroke:#FFFFFF;stroke-width:1;" width="1402.2026" x="5" y="112.8633"/><line style="stroke:#000000;stroke-width:0.5;" x1="5" x2="1407.2026" y1="112.8633" y2="112.8633"/><line style="stroke:#000000;stroke-width:0.5;" x1="5" x2="1407.2026" y1="115.8633" y2="115.8633"/><rect fill="#FFFFFF" height="23.1328" style="stroke:#000000;stroke-width:1;" width="121.4722" x="645.3652" y="102.2969"/><text fill="#000000" font-family="Verdana" font-size="13" font-weight="bold" lengthAdjust="spacing" textLength="107.4722" x="651.3652" y="118.3638">Entry Scenario</text><g class="message" data-entity-1="part1" data-entity-2="part2" id="msg1"><polygon fill="#000000" points="306.5879,152.5625,316.5879,156.5625,306.5879,160.5625" style="stroke:#000000;stroke-width:1;"/><line style="stroke:#000000;stroke-width:1;" x1="47.002" x2="312.5879" y1="156.5625" y2="156.5625"/><text fill="#000000" font-family="Verdana" font-size="13" lengthAdjust="spacing" textLength="203.1885" x="54.002" y="151.4966">Select Spot &amp; Click "Park Here"</text></g><g class="message" data-entity-1="part2" data-entity-2="part2" id="msg2"><line style="stroke:#000000;stroke-width:1;" x1="328.5879" x2="370.5879" y1="185.6953" y2="185.6953"/><line style="stroke:#000000;stroke-width:1;" x1="370.5879" x2="370.5879" y1="185.6953" y2="198.6953"/><line style="stroke:#000000;stroke-width:1;" x1="329.5879" x2="370.5879" y1="198.6953" y2="198.6953"/><polygon fill="#000000" points="339.5879,194.6953,329.5879,198.6953,339.5879,202.6953" style="stroke:#000000;stroke-width:1;"/><text fill="#000000" font-family="Verdana" font-size="13" lengthAdjust="spacing" textLength="168.8413" x="335.5879" y="180.6294">Check inputs (plate, type)</text></g><g class="message" data-entity-1="part2" data-entity-2="part3" id="msg3"><polygon fill="#000000" points="590.6348,223.8281,600.6348,227.8281,590.6348,231.8281" style="stroke:#000000;stroke-width:1;"/><line style="stroke:#000000;stroke-width:1;" x1="328.5879" x2="596.6348" y1="227.8281" y2="227.8281"/><text fill="#000000" font-family="Verdana" font-size="13" lengthAdjust="spacing" textLength="169.4253" x="335.5879" y="222.7622">createVehicle(type, plate)</text></g><g class="message" data-entity-1="part3" data-entity-2="part4" id="msg4"><polygon fill="#000000" points="731.3696,252.9609,741.3696,256.9609,731.3696,260.9609" style="stroke:#000000;stroke-width:1;"/><line style="stroke:#000000;stroke-width:1;" x1="612.6348" x2="737.3696" y1="256.9609" y2="256.9609"/><text fill="#000000" font-family="Verdana" font-size="13" lengthAdjust="spacing" textLength="41.5518" x="619.6348" y="251.895">create</text></g><g class="message" data-entity-1="part3" data-entity-2="part2" id="msg5"><polygon fill="#000000" points="339.5879,282.0938,329.5879,286.0938,339.5879,290.0938" style="stroke:#000000;stroke-width:1;"/><line style="stroke:#000000;stroke-width:1;stroke-dasharray:2,2;" x1="333.5879" x2="606.6348" y1="286.0938" y2="286.0938"/><text fill="#000000" font-family="Verdana" font-size="13" lengthAdjust="spacing" textLength="90.6953" x="345.5879" y="281.0278">return vehicle</text></g><g class="message" data-entity-1="part2" data-entity-2="part5" id="msg6"><polygon fill="#000000" points="838.1274,311.2266,848.1274,315.2266,838.1274,319.2266" style="stroke:#000000;stroke-width:1;"/><line style="stroke:#000000;stroke-width:1;" x1="328.5879" x2="844.1274" y1="315.2266" y2="315.2266"/><text fill="#000000" font-family="Verdana" font-size="13" lengthAdjust="spacing" textLength="243.4897" x="335.5879" y="310.1606">spotTypeValidation(vehicle, hasCard)</text></g><g class="message" data-entity-1="part5" data-entity-2="part2" id="msg7"><polygon fill="#000000" points="339.5879,340.3594,329.5879,344.3594,339.5879,348.3594" style="stroke:#000000;stroke-width:1;"/><line style="stroke:#000000;stroke-width:1;stroke-dasharray:2,2;" x1="333.5879" x2="854.1274" y1="344.3594" y2="344.3594"/><text fill="#000000" font-family="Verdana" font-size="13" lengthAdjust="spacing" textLength="26.6792" x="345.5879" y="339.2935">true</text></g><g class="message" data-entity-1="part2" data-entity-2="part5" id="msg8"><polygon fill="#000000" points="838.1274,369.4922,848.1274,373.4922,838.1274,377.4922" style="stroke:#000000;stroke-width:1;"/><line style="stroke:#000000;stroke-width:1;" x1="328.5879" x2="844.1274" y1="373.4922" y2="373.4922"/><text fill="#000000" font-family="Verdana" font-size="13" lengthAdjust="spacing" textLength="133.0342" x="335.5879" y="368.4263">parkVehicle(vehicle)</text></g><g class="message" data-entity-1="part5" data-entity-2="part5" id="msg9"><line style="stroke:#000000;stroke-width:1;" x1="860.1274" x2="902.1274" y1="402.625" y2="402.625"/><line style="stroke:#000000;stroke-width:1;" x1="902.1274" x2="902.1274" y1="402.625" y2="415.625"/><line style="stroke:#000000;stroke-width:1;" x1="861.1274" x2="902.1274" y1="415.625" y2="415.625"/><polygon fill="#000000" points="871.1274,411.625,861.1274,415.625,871.1274,419.625" style="stroke:#000000;stroke-width:1;"/><text fill="#000000" font-family="Verdana" font-size="13" lengthAdjust="spacing" textLength="139.0327" x="867.1274" y="397.5591">currVehicle = vehicle</text></g><g class="message" data-entity-1="part5" data-entity-2="part5" id="msg10"><line style="stroke:#000000;stroke-width:1;" x1="860.1274" x2="902.1274" y1="449.7578" y2="449.7578"/><line style="stroke:#000000;stroke-width:1;" x1="902.1274" x2="902.1274" y1="449.7578" y2="462.7578"/><line style="stroke:#000000;stroke-width:1;" x1="855.1274" x2="902.1274" y1="462.7578" y2="462.7578"/><polygon fill="#000000" points="865.1274,458.7578,855.1274,462.7578,865.1274,466.7578" style="stroke:#000000;stroke-width:1;"/><text fill="#000000" font-family="Verdana" font-size="13" lengthAdjust="spacing" textLength="104.438" x="867.1274" y="444.6919">occupied = true</text></g><g class="message" data-entity-1="part2" data-entity-2="part6" id="msg11"><polygon fill="#000000" points="1016.1602,482.8906,1026.1602,486.8906,1016.1602,490.8906" style="stroke:#000000;stroke-width:1;"/><line style="stroke:#000000;stroke-width:1;" x1="328.5879" x2="1022.1602" y1="486.8906" y2="486.8906"/><text fill="#000000" font-family="Verdana" font-size="13" lengthAdjust="spacing" textLength="169.4253" x="335.5879" y="481.8247">create(vehicle, spot, now)</text></g><g class="message" data-entity-1="part2" data-entity-2="part2" id="msg12"><line style="stroke:#000000;stroke-width:1;" x1="328.5879" x2="370.5879" y1="516.0234" y2="516.0234"/><line style="stroke:#000000;stroke-width:1;" x1="370.5879" x2="370.5879" y1="516.0234" y2="529.0234"/><line style="stroke:#000000;stroke-width:1;" x1="329.5879" x2="370.5879" y1="529.0234" y2="529.0234"/><polygon fill="#000000" points="339.5879,525.0234,329.5879,529.0234,339.5879,533.0234" style="stroke:#000000;stroke-width:1;"/><text fill="#000000" font-family="Verdana" font-size="13" lengthAdjust="spacing" textLength="250.0469" x="335.5879" y="510.9575">saveVehicleEntry(vehicle, ticket, spot)</text></g><g class="message" data-entity-1="part2" data-entity-2="part1" id="msg13"><polygon fill="#000000" points="58.002,554.1563,48.002,558.1563,58.002,562.1563" style="stroke:#000000;stroke-width:1;"/><line style="stroke:#000000;stroke-width:1;" x1="52.002" x2="322.5879" y1="558.1563" y2="558.1563"/><text fill="#000000" font-family="Verdana" font-size="13" lengthAdjust="spacing" textLength="180.2925" x="64.002" y="553.0903">Show "Parked Successfully"</text></g><rect fill="#FFFFFF" height="3" style="stroke:#FFFFFF;stroke-width:1;" width="1402.2026" x="5" y="586.7227"/><line style="stroke:#000000;stroke-width:0.5;" x1="5" x2="1407.2026" y1="586.7227" y2="586.7227"/><line style="stroke:#000000;stroke-width:0.5;" x1="5" x2="1407.2026" y1="589.7227" y2="589.7227"/><rect fill="#FFFFFF" height="23.1328" style="stroke:#000000;stroke-width:1;" width="211.1646" x="600.519" y="576.1563"/><text fill="#000000" font-family="Verdana" font-size="13" font-weight="bold" lengthAdjust="spacing" textLength="197.1646" x="606.519" y="592.2231">Exit and Payment Scenario</text><g class="message" data-entity-1="part1" data-entity-2="part2" id="msg14"><polygon fill="#000000" points="306.5879,626.4219,316.5879,630.4219,306.5879,634.4219" style="stroke:#000000;stroke-width:1;"/><line style="stroke:#000000;stroke-width:1;" x1="47.002" x2="312.5879" y1="630.4219" y2="630.4219"/><text fill="#000000" font-family="Verdana" font-size="13" lengthAdjust="spacing" textLength="164.5884" x="54.002" y="625.356">Enter Plate &amp; Click "Find"</text></g><g class="message" data-entity-1="part2" data-entity-2="part2" id="msg15"><line style="stroke:#000000;stroke-width:1;" x1="328.5879" x2="370.5879" y1="659.5547" y2="659.5547"/><line style="stroke:#000000;stroke-width:1;" x1="370.5879" x2="370.5879" y1="659.5547" y2="672.5547"/><line style="stroke:#000000;stroke-width:1;" x1="329.5879" x2="370.5879" y1="672.5547" y2="672.5547"/><polygon fill="#000000" points="339.5879,668.5547,329.5879,672.5547,339.5879,676.5547" style="stroke:#000000;stroke-width:1;"/><text fill="#000000" font-family="Verdana" font-size="13" lengthAdjust="spacing" textLength="152.1406" x="335.5879" y="654.4888">findTicketDetails(plate)</text></g><g class="message" data-entity-1="part2" data-entity-2="part2" id="msg16"><line style="stroke:#000000;stroke-width:1;" x1="328.5879" x2="370.5879" y1="701.6875" y2="701.6875"/><line style="stroke:#000000;stroke-width:1;" x1="370.5879" x2="370.5879" y1="701.6875" y2="714.6875"/><line style="stroke:#000000;stroke-width:1;" x1="329.5879" x2="370.5879" y1="714.6875" y2="714.6875"/><polygon fill="#000000" points="339.5879,710.6875,329.5879,714.6875,339.5879,718.6875" style="stroke:#000000;stroke-width:1;"/><text fill="#000000" font-family="Verdana" font-size="13" lengthAdjust="spacing" textLength="175.7793" x="335.5879" y="696.6216">calcHours(entryTime, now)</text></g><path d="M243.3872,729.6875 L307.8301,729.6875 L307.8301,736.8203 L297.8301,746.8203 L243.3872,746.8203 L243.3872,729.6875" fill="#FFFFFF" style="stroke:#000000;stroke-width:1;"/><rect fill="none" height="232.7344" style="stroke:#000000;stroke-width:1;" width="1062.8955" x="243.3872" y="729.6875"/><text fill="#000000" font-family="Verdana" font-size="13" font-weight="bold" lengthAdjust="spacing" textLength="19.4429" x="258.3872" y="742.7544">alt</text><text fill="#000000" font-family="Verdana" font-size="11" font-weight="bold" lengthAdjust="spacing" textLength="136.8608" x="322.8301" y="741.8979">[Duration &gt; 24 Hours]</text><g class="message" data-entity-1="part2" data-entity-2="part2" id="msg17"><line style="stroke:#000000;stroke-width:1;" x1="328.5879" x2="375.5879" y1="762.9531" y2="762.9531"/><line style="stroke:#000000;stroke-width:1;" x1="375.5879" x2="375.5879" y1="762.9531" y2="775.9531"/><line style="stroke:#000000;stroke-width:1;" x1="334.5879" x2="375.5879" y1="775.9531" y2="775.9531"/><polygon fill="#000000" points="344.5879,771.9531,334.5879,775.9531,344.5879,779.9531" style="stroke:#000000;stroke-width:1;"/><text fill="#000000" font-family="Verdana" font-size="13" lengthAdjust="spacing" textLength="130.3809" x="340.5879" y="757.8872">calcFine(entry, exit)</text></g><g class="message" data-entity-1="part2" data-entity-2="part7" id="msg18"><polygon fill="#000000" points="1107.6016,806.0859,1117.6016,810.0859,1107.6016,814.0859" style="stroke:#000000;stroke-width:1;"/><line style="stroke:#000000;stroke-width:1;" x1="333.5879" x2="1113.6016" y1="810.0859" y2="810.0859"/><text fill="#000000" font-family="Verdana" font-size="13" lengthAdjust="spacing" textLength="122.5415" x="340.5879" y="805.02">activeFineStrategy</text></g><g class="message" data-entity-1="part7" data-entity-2="part2" id="msg19"><polygon fill="#000000" points="344.5879,835.2188,334.5879,839.2188,344.5879,843.2188" style="stroke:#000000;stroke-width:1;"/><line style="stroke:#000000;stroke-width:1;stroke-dasharray:2,2;" x1="338.5879" x2="1118.6016" y1="839.2188" y2="839.2188"/><text fill="#000000" font-family="Verdana" font-size="13" lengthAdjust="spacing" textLength="98.6172" x="350.5879" y="834.1528">return strategy</text></g><g class="message" data-entity-1="part2" data-entity-2="part8" id="msg20"><polygon fill="#000000" points="1217.5757,864.3516,1227.5757,868.3516,1217.5757,872.3516" style="stroke:#000000;stroke-width:1;"/><line style="stroke:#000000;stroke-width:1;" x1="333.5879" x2="1223.5757" y1="868.3516" y2="868.3516"/><text fill="#000000" font-family="Verdana" font-size="13" lengthAdjust="spacing" textLength="132.8057" x="340.5879" y="863.2856">calculateFine(hours)</text></g><g class="message" data-entity-1="part8" data-entity-2="part2" id="msg21"><polygon fill="#000000" points="339.5879,893.4844,329.5879,897.4844,339.5879,901.4844" style="stroke:#000000;stroke-width:1;"/><line style="stroke:#000000;stroke-width:1;stroke-dasharray:2,2;" x1="333.5879" x2="1233.5757" y1="897.4844" y2="897.4844"/><text fill="#000000" font-family="Verdana" font-size="13" lengthAdjust="spacing" textLength="119.9072" x="345.5879" y="892.4185">return fineAmount</text></g><line style="stroke:#000000;stroke-width:1;stroke-dasharray:2,2;" x1="243.3872" x2="1306.2827" y1="906.4844" y2="906.4844"/><text fill="#000000" font-family="Verdana" font-size="11" font-weight="bold" lengthAdjust="spacing" textLength="146.0776" x="248.3872" y="916.6948">[Duration &lt;= 24 Hours]</text><g class="message" data-entity-1="part2" data-entity-2="part2" id="msg22"><line style="stroke:#000000;stroke-width:1;" x1="328.5879" x2="370.5879" y1="941.4219" y2="941.4219"/><line style="stroke:#000000;stroke-width:1;" x1="370.5879" x2="370.5879" y1="941.4219" y2="954.4219"/><line style="stroke:#000000;stroke-width:1;" x1="329.5879" x2="370.5879" y1="954.4219" y2="954.4219"/><polygon fill="#000000" points="339.5879,950.4219,329.5879,954.4219,339.5879,958.4219" style="stroke:#000000;stroke-width:1;"/><text fill="#000000" font-family="Verdana" font-size="13" lengthAdjust="spacing" textLength="51.854" x="335.5879" y="936.356">fine = 0</text></g><g class="message" data-entity-1="part2" data-entity-2="part2" id="msg23"><line style="stroke:#000000;stroke-width:1;" x1="328.5879" x2="370.5879" y1="990.5547" y2="990.5547"/><line style="stroke:#000000;stroke-width:1;" x1="370.5879" x2="370.5879" y1="990.5547" y2="1003.5547"/><line style="stroke:#000000;stroke-width:1;" x1="329.5879" x2="370.5879" y1="1003.5547" y2="1003.5547"/><polygon fill="#000000" points="339.5879,999.5547,329.5879,1003.5547,339.5879,1007.5547" style="stroke:#000000;stroke-width:1;"/><text fill="#000000" font-family="Verdana" font-size="13" lengthAdjust="spacing" textLength="163.6235" x="335.5879" y="985.4888">calculateFee(hours, rate)</text></g><g class="message" data-entity-1="part2" data-entity-2="part2" id="msg24"><line style="stroke:#000000;stroke-width:1;" x1="328.5879" x2="370.5879" y1="1032.6875" y2="1032.6875"/><line style="stroke:#000000;stroke-width:1;" x1="370.5879" x2="370.5879" y1="1032.6875" y2="1045.6875"/><line style="stroke:#000000;stroke-width:1;" x1="329.5879" x2="370.5879" y1="1045.6875" y2="1045.6875"/><polygon fill="#000000" points="339.5879,1041.6875,329.5879,1045.6875,339.5879,1049.6875" style="stroke:#000000;stroke-width:1;"/><text fill="#000000" font-family="Verdana" font-size="13" lengthAdjust="spacing" textLength="222.1616" x="335.5879" y="1027.6216">total = fee + fine + previousFines</text></g><g class="message" data-entity-1="part2" data-entity-2="part2" id="msg25"><line style="stroke:#000000;stroke-width:1;" x1="328.5879" x2="370.5879" y1="1074.8203" y2="1074.8203"/><line style="stroke:#000000;stroke-width:1;" x1="370.5879" x2="370.5879" y1="1074.8203" y2="1087.8203"/><line style="stroke:#000000;stroke-width:1;" x1="329.5879" x2="370.5879" y1="1087.8203" y2="1087.8203"/><polygon fill="#000000" points="339.5879,1083.8203,329.5879,1087.8203,339.5879,1091.8203" style="stroke:#000000;stroke-width:1;"/><text fill="#000000" font-family="Verdana" font-size="13" lengthAdjust="spacing" textLength="118.1743" x="335.5879" y="1069.7544">generateReceipt()</text></g><g class="message" data-entity-1="part2" data-entity-2="part1" id="msg26"><polygon fill="#000000" points="58.002,1112.9531,48.002,1116.9531,58.002,1120.9531" style="stroke:#000000;stroke-width:1;"/><line style="stroke:#000000;stroke-width:1;" x1="52.002" x2="322.5879" y1="1116.9531" y2="1116.9531"/><text fill="#000000" font-family="Verdana" font-size="13" lengthAdjust="spacing" textLength="101.188" x="64.002" y="1111.8872">Display Receipt</text></g><g class="message" data-entity-1="part1" data-entity-2="part2" id="msg27"><polygon fill="#000000" points="306.5879,1142.0859,316.5879,1146.0859,306.5879,1150.0859" style="stroke:#000000;stroke-width:1;"/><line style="stroke:#000000;stroke-width:1;" x1="47.002" x2="312.5879" y1="1146.0859" y2="1146.0859"/><text fill="#000000" font-family="Verdana" font-size="13" lengthAdjust="spacing" textLength="252.5859" x="54.002" y="1141.02">Select Method &amp; Click "Pay Fee &amp; Exit"</text></g><g class="message" data-entity-1="part2" data-entity-2="part9" id="msg28"><polygon fill="#000000" points="1337.2427,1171.2188,1347.2427,1175.2188,1337.2427,1179.2188" style="stroke:#000000;stroke-width:1;"/><line style="stroke:#000000;stroke-width:1;" x1="328.5879" x2="1343.2427" y1="1175.2188" y2="1175.2188"/><text fill="#000000" font-family="Verdana" font-size="13" lengthAdjust="spacing" textLength="181.0796" x="335.5879" y="1170.1528">create(plate, total, method)</text></g><g class="message" data-entity-1="part2" data-entity-2="part9" id="msg29"><polygon fill="#000000" points="1337.2427,1200.3516,1347.2427,1204.3516,1337.2427,1208.3516" style="stroke:#000000;stroke-width:1;"/><line style="stroke:#000000;stroke-width:1;" x1="328.5879" x2="1343.2427" y1="1204.3516" y2="1204.3516"/><text fill="#000000" font-family="Verdana" font-size="13" lengthAdjust="spacing" textLength="218.3911" x="335.5879" y="1199.2856">processPayment(ticketID, spotID)</text></g><g class="message" data-entity-1="part9" data-entity-2="part2" id="msg30"><polygon fill="#000000" points="339.5879,1229.4844,329.5879,1233.4844,339.5879,1237.4844" style="stroke:#000000;stroke-width:1;"/><line style="stroke:#000000;stroke-width:1;stroke-dasharray:2,2;" x1="333.5879" x2="1353.2427" y1="1233.4844" y2="1233.4844"/><text fill="#000000" font-family="Verdana" font-size="13" lengthAdjust="spacing" textLength="26.6792" x="345.5879" y="1228.4185">true</text></g><g class="message" data-entity-1="part2" data-entity-2="part5" id="msg31"><polygon fill="#000000" points="838.1274,1258.6172,848.1274,1262.6172,838.1274,1266.6172" style="stroke:#000000;stroke-width:1;"/><line style="stroke:#000000;stroke-width:1;" x1="328.5879" x2="844.1274" y1="1262.6172" y2="1262.6172"/><text fill="#000000" font-family="Verdana" font-size="13" lengthAdjust="spacing" textLength="103.2129" x="335.5879" y="1257.5513">unparkVehicle()</text></g><g class="message" data-entity-1="part5" data-entity-2="part5" id="msg32"><line style="stroke:#000000;stroke-width:1;" x1="860.1274" x2="902.1274" y1="1291.75" y2="1291.75"/><line style="stroke:#000000;stroke-width:1;" x1="902.1274" x2="902.1274" y1="1291.75" y2="1304.75"/><line style="stroke:#000000;stroke-width:1;" x1="861.1274" x2="902.1274" y1="1304.75" y2="1304.75"/><polygon fill="#000000" points="871.1274,1300.75,861.1274,1304.75,871.1274,1308.75" style="stroke:#000000;stroke-width:1;"/><text fill="#000000" font-family="Verdana" font-size="13" lengthAdjust="spacing" textLength="116.4351" x="867.1274" y="1286.6841">currVehicle = null</text></g><g class="message" data-entity-1="part5" data-entity-2="part5" id="msg33"><line style="stroke:#000000;stroke-width:1;" x1="860.1274" x2="902.1274" y1="1338.8828" y2="1338.8828"/><line style="stroke:#000000;stroke-width:1;" x1="902.1274" x2="902.1274" y1="1338.8828" y2="1351.8828"/><line style="stroke:#000000;stroke-width:1;" x1="855.1274" x2="902.1274" y1="1351.8828" y2="1351.8828"/><polygon fill="#000000" points="865.1274,1347.8828,855.1274,1351.8828,865.1274,1355.8828" style="stroke:#000000;stroke-width:1;"/><text fill="#000000" font-family="Verdana" font-size="13" lengthAdjust="spacing" textLength="108.6846" x="867.1274" y="1333.8169">occupied = false</text></g><g class="message" data-entity-1="part2" data-entity-2="part1" id="msg34"><polygon fill="#000000" points="58.002,1372.0156,48.002,1376.0156,58.002,1380.0156" style="stroke:#000000;stroke-width:1;"/><line style="stroke:#000000;stroke-width:1;" x1="52.002" x2="322.5879" y1="1376.0156" y2="1376.0156"/><text fill="#000000" font-family="Verdana" font-size="13" lengthAdjust="spacing" textLength="181.5557" x="64.002" y="1370.9497">Show "Payment Successful"</text></g><?plantuml-src dLNRZjCm47tFLmpx0Aae4hUd5KMgqYsi16pKb8fzDCvqQwtZHBPJoDyplgHDGuk0IArapttcpF4JkyCAeP5CgCGy2jKmpIemjfD8_rfmsrOoOTpM6hBMsBf2dP2I5LmqJ5cuwczpfb1U0JEGvICDZSpY1dU2Irnt3GQjpVfKBIfuuUPKb3DDkJqKJMszk1X5M0l-Y46qFclfHIEZfL1OM4sfFNHUlYp6jbs5AhZDv_T9yWncV_sHSf7TV9clRk_WrJNSV5clxY5VtMKtHV5lZcOpk55MTr1mL4oBckxwfiEBzzJkQoXG8hVW6WHF8PFKZr0xV4IDLsw0Oa-LkjaaMTwRPJiaHPfwQmsaX0ABKx0qeOahTkd7ta7Eh4MjIDqF4kAWUZ-RzJNmuOXJvs4Atjra49e6JZzdi-ajmaNCHgDjjO9zT5_YYIabj65IbExiwepX2p8qT7IuYd9HgpGwcSAEcOpfSf07WQV83q6jRaz2aPGY-TR5SY3zslYedx6YTam6WGakZttHCUBlWO8gRxNk7SuEDHxbDUTj8x0auVcKFg121rO8O8zP77f_hDXrOmgg_k67cACsmbXKdDh8f8Hq_fqMcvnZEHb0mR1zFp-FjgC_w-C5lvC3UY802Ngx-aV06YLVj9oZCTjMokxgP8Bv_w_FQuBq6rgXRxVh_z-Wdy82KoN4fVxJCb7zTCWTV8_BH6nHNjoZBGd3M1PecP0cZU0Vw70c-SUwrIP5rz-rgF0ufQoklXCTbV2fVX2yNymjaUxTdWPeMGUEhX8cBInQxJ4Ex-7rM_0k4w3lD9HJ3v6cW5JynEiCyp_Qa8aNu90IlJmVBwSPIlqV3IhUzKJXSJPmlon2IgthYSzhvv8UPKJiwyxBOXoIcelpgcwLzGe3K4MJKvYXD7ZiqRlPfIOvjxHiBnDKvNXE8LECYKv1-s4UTMnjcIJZBI8y3vwUGwDnB-hMk0hDGFaXBkuAEOh6fcTsQ24C0QQ3gFBxulIepNNjzejUj4jFm6UqkxeSFW847NH0TYjm5i7qjXrOf7y3N85JgBop0QMvPt1Wr8HqOdPfO8hRHU2AsmLLwa4qlxz8j_5TNL7op0HY_mFVjch8k7z7jOguw3pFRXb19HapxIL-YxHn8BWHlVq2?></g></svg>